<svg width="41" height="41" viewBox="0 0 41 41" fill="none" xmlns="http://www.w3.org/2000/svg">
<path d="M38.0141 0.491211H3.71943C2.148 0.491211 0.871216 1.78585 0.871216 3.37514V37.6073C0.871216 39.1966 2.148 40.4912 3.71943 40.4912H38.0141C39.5855 40.4912 40.8712 39.1966 40.8712 37.6073V3.37514C40.8712 1.78585 39.5855 0.491211 38.0141 0.491211ZM12.9605 34.7769H7.03193V15.6876H12.9694V34.7769H12.9605ZM9.99622 13.0805C8.09443 13.0805 6.55872 11.5359 6.55872 9.643C6.55872 7.75014 8.09443 6.2055 9.99622 6.2055C11.8891 6.2055 13.4337 7.75014 13.4337 9.643C13.4337 11.5448 11.898 13.0805 9.99622 13.0805ZM35.1837 34.7769H29.2551V25.4912C29.2551 23.2769 29.2105 20.4287 26.1748 20.4287C23.0855 20.4287 22.6123 22.8394 22.6123 25.3305V34.7769H16.6837V15.6876H22.3712V18.2948H22.4516C23.2462 16.7948 25.1837 15.2144 28.0676 15.2144C34.0676 15.2144 35.1837 19.1698 35.1837 24.3126V34.7769Z" fill="white"/>
</svg>
