<svg width="41" height="41" viewBox="0 0 41 41" fill="none" xmlns="http://www.w3.org/2000/svg">
<path d="M13.6704 32.6534C13.6704 32.8182 13.4809 32.95 13.242 32.95C12.97 32.9748 12.7805 32.8429 12.7805 32.6534C12.7805 32.4886 12.97 32.3567 13.209 32.3567C13.4562 32.332 13.6704 32.4639 13.6704 32.6534ZM11.1078 32.2826C11.0501 32.4474 11.2149 32.6369 11.4621 32.6864C11.6763 32.7688 11.9235 32.6864 11.973 32.5216C12.0224 32.3567 11.8658 32.1672 11.6186 32.0931C11.4044 32.0354 11.1654 32.1178 11.1078 32.2826ZM14.7499 32.1425C14.5109 32.2002 14.3461 32.3568 14.3709 32.5463C14.3956 32.7111 14.6098 32.8182 14.857 32.7605C15.096 32.7028 15.2608 32.5463 15.2361 32.3815C15.2114 32.2249 14.9889 32.1178 14.7499 32.1425ZM20.1719 0.566162C8.74282 0.566162 0 9.24306 0 20.6722C0 29.8105 5.75164 37.6305 13.9671 40.3827C15.0218 40.5722 15.3926 39.9212 15.3926 39.3856C15.3926 38.8747 15.3679 36.0566 15.3679 34.3262C15.3679 34.3262 9.5998 35.5622 8.3885 31.8706C8.3885 31.8706 7.44912 29.4727 6.09773 28.8547C6.09773 28.8547 4.21073 27.561 6.22957 27.5857C6.22957 27.5857 8.28137 27.7505 9.41028 29.7117C11.2149 32.8924 14.239 31.9777 15.4174 31.4339C15.6069 30.1154 16.1425 29.2008 16.7358 28.6569C12.1295 28.146 7.48208 27.4786 7.48208 19.5515C7.48208 17.2855 8.10833 16.1483 9.42676 14.6981C9.21251 14.1624 8.5121 11.9541 9.641 9.10298C11.3632 8.56737 15.3267 11.3278 15.3267 11.3278C16.9748 10.8664 18.7464 10.6274 20.5016 10.6274C22.2567 10.6274 24.0283 10.8664 25.6764 11.3278C25.6764 11.3278 29.6399 8.55913 31.3621 9.10298C32.491 11.9623 31.7906 14.1624 31.5763 14.6981C32.8948 16.1566 33.7023 17.2937 33.7023 19.5515C33.7023 27.5033 28.8488 28.1378 24.2426 28.6569C25.0007 29.3079 25.6434 30.5439 25.6434 32.4804C25.6434 35.2573 25.6187 38.6934 25.6187 39.3691C25.6187 39.9047 25.9977 40.5557 27.0442 40.3662C35.2844 37.6305 40.8713 29.8105 40.8713 20.6722C40.8713 9.24306 31.6011 0.566162 20.1719 0.566162ZM8.00945 28.9865C7.90233 29.0689 7.92705 29.2584 8.06713 29.415C8.19897 29.5469 8.3885 29.6045 8.49562 29.4974C8.60274 29.415 8.57802 29.2255 8.43794 29.0689C8.30609 28.9371 8.11657 28.8794 8.00945 28.9865ZM7.11951 28.3191C7.06183 28.4262 7.14423 28.558 7.30903 28.6404C7.44088 28.7228 7.60568 28.6981 7.66336 28.5828C7.72104 28.4756 7.63864 28.3438 7.47384 28.2614C7.30903 28.2119 7.17719 28.2367 7.11951 28.3191ZM9.78933 31.2526C9.65748 31.3597 9.70692 31.6069 9.89645 31.7635C10.086 31.953 10.3249 31.9777 10.4321 31.8459C10.5392 31.7387 10.4897 31.4915 10.3249 31.335C10.1437 31.1454 9.89645 31.1207 9.78933 31.2526ZM8.84995 30.0413C8.7181 30.1237 8.7181 30.3379 8.84995 30.5274C8.98179 30.717 9.20427 30.7994 9.3114 30.717C9.44324 30.6098 9.44324 30.3956 9.3114 30.2061C9.19603 30.0165 8.98179 29.9341 8.84995 30.0413Z" fill="white"/>
</svg>
